<svg xmlns="http://www.w3.org/2000/svg" viewBox="0 0 1024 1024">
  <defs>
    <linearGradient id="g" x1="0" x2="1" y1="0" y2="1">
      <stop offset="0" stop-color="#00b4db"/>
      <stop offset="1" stop-color="#0083b0"/>
    </linearGradient>
  </defs>
  <rect width="100%" height="100%" fill="url(#g)" rx="180"/>
  <g transform="translate(160,160) scale(0.7)">
    <path d="M208 64h208c52 0 96 44 96 96v208c0 52-44 96-96 96H208c-52 0-96-44-96-96V160c0-52 44-96 96-96z" fill="#fff" opacity="0.12"/>
    <path d="M160 320c0-88 72-160 160-160h224c88 0 160 72 160 160v256c0 88-72 160-160 160H320c-88 0-160-72-160-160V320z" fill="#fff"/>
    <circle cx="480" cy="256" r="48" fill="#00b4db"/>
    <path d="M352 384h256v64H352z" fill="#0083b0"/>
  </g>
</svg>
